<?xml version="1.0" encoding="UTF-8" standalone="no"?>
<svg
   enable-background="new 0 0 24 24"
   height="24px"
   id="Layer_1"
   version="1.1"
   viewBox="0 0 24 24"
   width="24px"
   xml:space="preserve"
   sodipodi:docname="logo.svg"
   inkscape:version="1.1.2 (76b9e6a115, 2022-02-25)"
   xmlns:inkscape="http://www.inkscape.org/namespaces/inkscape"
   xmlns:sodipodi="http://sodipodi.sourceforge.net/DTD/sodipodi-0.dtd"
   xmlns="http://www.w3.org/2000/svg"
   xmlns:svg="http://www.w3.org/2000/svg"><defs
     id="defs7" /><sodipodi:namedview
     id="namedview5"
     pagecolor="#ffffff"
     bordercolor="#666666"
     borderopacity="1.0"
     inkscape:pageshadow="2"
     inkscape:pageopacity="0.0"
     inkscape:pagecheckerboard="0"
     showgrid="false"
     inkscape:zoom="35.166667"
     inkscape:cx="12"
     inkscape:cy="12.014218"
     inkscape:window-width="1864"
     inkscape:window-height="1016"
     inkscape:window-x="56"
     inkscape:window-y="27"
     inkscape:window-maximized="1"
     inkscape:current-layer="Layer_1" /><path
     d="M 20.034782,0 H 3.9652174 C 1.773913,0 0,1.773913 0,3.9652174 V 20.034783 C 0,22.226087 1.773913,24 3.9652174,24 H 20.034782 C 22.226086,24 24,22.226087 24,20.034783 V 3.9652174 C 24,1.773913 22.226086,0 20.034782,0 Z m -2.191305,17.113043 c 0.313044,0 0.52174,0.208696 0.52174,0.52174 0,0.313043 -0.208696,0.521739 -0.52174,0.521739 h -3.130434 c -0.313043,0 -0.521739,-0.208696 -0.521739,-0.521739 0,-0.313044 0.208696,-0.52174 0.521739,-0.52174 h 1.043478 V 8.2434783 l -3.33913,5.6347827 c 0,0 0,0 0,0 0,0 0,0 -0.104348,0.104348 0,0 0,0 -0.104348,0.104348 0,0 0,0 0,0 0,0 0,0 -0.104347,0 0,0 -0.104348,0 -0.104348,0 0,0 -0.104349,0 -0.104349,0 0,0 -0.104348,0 -0.104348,0 0,0 -0.104347,0 -0.104347,0 0,0 0,0 -0.104348,0 0,0 0,0 0,0 0,0 -0.104348,0 -0.104348,-0.104348 0,0 0,0 -0.104348,-0.104348 0,0 0,0 0,0 L 8.2434783,8.2434783 v 8.8695647 h 1.0434783 c 0.3130434,0 0.5217391,0.208696 0.5217391,0.52174 0,0.313043 -0.2086957,0.521739 -0.5217391,0.521739 H 6.1565217 c -0.3130434,0 -0.5217391,-0.208696 -0.5217391,-0.521739 0,-0.313044 0.2086957,-0.52174 0.5217391,-0.52174 H 7.2000001 V 6.8869565 H 6.1565217 c -0.3130434,0 -0.5217391,-0.2086956 -0.5217391,-0.5217391 0,-0.3130435 0.2086957,-0.5217391 0.5217391,-0.5217391 h 1.5652175 c 0.1043478,0 0.1043478,0 0.2086955,0 0,0 0,0 0,0 0.104348,0 0.2086957,0.1043478 0.2086957,0.2086956 0,0 0,0 0,0 L 12,12.521739 15.860869,6.0521739 c 0,0 0,0 0,0 0.104348,-0.1043478 0.104348,-0.1043478 0.208696,-0.2086956 0,0 0,0 0,0 0.104347,0 0.104347,0 0.208695,0 h 1.565217 c 0.313044,0 0.52174,0.2086956 0.52174,0.5217391 0,0.3130435 -0.208696,0.5217391 -0.52174,0.5217391 H 16.8 V 17.113043 Z"
     id="path2"
     style="stroke-width:1.04347" /></svg>
